# xmcd
#
# Track frame offsets:
#	150
#	18459
#	35580
#	55141
#	68665
#	85367
#	104754
#	123036
#	140401
#	156752
#	173716
#	197271
#	212130
#	228160
#
# Disc length: 3273 seconds
#
# Revision: 0
# Processed by: cddbd v1.5.1PL0 Copyright (c) Steve Scherf et al.
# Submitted via: audiograbber 1.83.01
#
DISCID=b70cc70e
DTITLE=Arissaman Pongruengrong - Arissaman - 2 Leela Vol.2  (Loog Thung hits)
DYEAR=2004
DGENRE=Thai
TTITLE0=Sei kwam roo suek
TTITLE1=Ruk nee mee gum 
TTITLE2=Joob mai wann
TTITLE3=Bua toom bua bann 
TTITLE4=Joob mud jum
TTITLE5=Ton kum sa bann
TTITLE6=Ruk kao tee bann kerd
TTITLE7=Nao lome tee ray noo
TTITLE8=Lah sao mae klueng
TTITLE9=Jod mai jak mae
TTITLE10=Num krod chae yen
TTITLE11=Kid tueng pee mai
TTITLE12=Sei kwam roo suek
TTITLE13=Ruk kao tee bann kerd (instrumental)
EXTD=
EXTT0=
EXTT1=
EXTT2=
EXTT3=
EXTT4=
EXTT5=
EXTT6=
EXTT7=
EXTT8=
EXTT9=
EXTT10=
EXTT11=
EXTT12=
EXTT13=
PLAYORDER=
